HIERARCHY
ROOT Pelvis
{
	OFFSET 0.000000 0.000000 0.000000
	CHANNELS 6 Xposition Yposition Zposition Xrotation Yrotation Zrotation
	JOINT LeftUpLeg_virtual
	{
		OFFSET 0.000000 0.000000 0.000000
		CHANNELS 3 Xrotation Yrotation Zrotation
		JOINT LeftUpLeg
		{
			OFFSET 8.479700 -4.795502 -0.379100
			CHANNELS 3 Xrotation Yrotation Zrotation
			JOINT LeftLeg
			{
				OFFSET 0.024144 -32.555107 0.112900
				CHANNELS 3 Xrotation Yrotation Zrotation
				JOINT LeftFoot
				{
					OFFSET -0.024144 -32.638630 -3.012600
					CHANNELS 3 Xrotation Yrotation Zrotation
					JOINT LeftToeBase
					{
						OFFSET 0.970200 -13.225400 11.864200
						CHANNELS 3 Xrotation Yrotation Zrotation
						End Site
						{
							OFFSET 0 0 0
						}
					}
				}
			}
		}
	}
	JOINT RightUpLeg_virtual
	{
		OFFSET 0.000000 0.000000 0.000000
		CHANNELS 3 Xrotation Yrotation Zrotation
		JOINT RightUpLeg
		{
			OFFSET -8.479700 -4.795502 -0.379100
			CHANNELS 3 Xrotation Yrotation Zrotation
			JOINT RightLeg
			{
				OFFSET -0.023144 -32.555092 0.112900
				CHANNELS 3 Xrotation Yrotation Zrotation
				JOINT RightFoot
				{
					OFFSET 0.023144 -32.638641 -3.012700
					CHANNELS 3 Xrotation Yrotation Zrotation
					JOINT RightToeBase
					{
						OFFSET -0.970200 -13.225400 11.864200
						CHANNELS 3 Xrotation Yrotation Zrotation
						End Site
						{
							OFFSET 0 0 0
						}
					}
				}
			}
		}
	}
	JOINT Hips_virtual
	{
		OFFSET 0.000000 0.000000 0.000000
		CHANNELS 3 Xrotation Yrotation Zrotation
		JOINT Hips
		{
			OFFSET -0.000000 -0.000000 -0.000000
			CHANNELS 3 Xrotation Yrotation Zrotation
			JOINT Spine
			{
				OFFSET 0.000000 7.722000 1.166200
				CHANNELS 3 Xrotation Yrotation Zrotation
				JOINT Spine1
				{
					OFFSET 0.000000 12.024101 0.248800
					CHANNELS 3 Xrotation Yrotation Zrotation
					JOINT Spine2
					{
						OFFSET 0.000000 11.502998 -0.491200
						CHANNELS 3 Xrotation Yrotation Zrotation
						JOINT Neck_virtual
						{
							OFFSET 0.000000 0.000000 0.000000
							CHANNELS 3 Xrotation Yrotation Zrotation
							JOINT Neck
							{
								OFFSET 0.000000 18.430702 -3.123100
								CHANNELS 3 Xrotation Yrotation Zrotation
								JOINT Head
								{
									OFFSET 0.000000 9.051102 1.034000
									CHANNELS 3 Xrotation Yrotation Zrotation
									End Site
									{
										OFFSET 0 0 0
									}
								}
							}
						}
						JOINT LeftShoulder_virtual
						{
							OFFSET 0.000000 0.000000 0.000000
							CHANNELS 3 Xrotation Yrotation Zrotation
							JOINT LeftShoulder
							{
								OFFSET 6.197800 13.665199 -4.064700
								CHANNELS 3 Xrotation Yrotation Zrotation
								JOINT LeftArm
								{
									OFFSET 7.778100 -0.187103 -1.709300
									CHANNELS 3 Xrotation Yrotation Zrotation
									JOINT LeftForeArm
									{
										OFFSET 22.049376 0.000000 0.000000
										CHANNELS 3 Xrotation Yrotation Zrotation
										JOINT LeftHand
										{
											OFFSET 23.009392 0.000000 0.000000
											CHANNELS 3 Xrotation Yrotation Zrotation
											End Site
											{
												OFFSET 0 0 0
											}
										}
									}
								}
							}
						}
						JOINT RightShoulder_virtual
						{
							OFFSET 0.000000 0.000000 0.000000
							CHANNELS 3 Xrotation Yrotation Zrotation
							JOINT RightShoulder
							{
								OFFSET -6.197800 13.665199 -4.064700
								CHANNELS 3 Xrotation Yrotation Zrotation
								JOINT RightArm
								{
									OFFSET -7.778100 -0.187103 -1.709300
									CHANNELS 3 Xrotation Yrotation Zrotation
									JOINT RightForeArm
									{
										OFFSET -22.049376 0.000000 0.000000
										CHANNELS 3 Xrotation Yrotation Zrotation
										JOINT RightHand
										{
											OFFSET -23.009392 0.000000 0.000000
											CHANNELS 3 Xrotation Yrotation Zrotation
											End Site
											{
												OFFSET 0 0 0
											}
										}
									}
								}
							}
						}
					}
				}
			}
		}
	}
}
MOTION
Frames: 5
Frame Time: 0.03333333
-1.341957 107.352921 244.414581 0.000000 0.000000 0.000000 6.709192 -36.968921 19.553332 -91.187171 -21.132508 19.262725 103.864043 16.062469 6.607072 -10.576136 0.712329 4.824228 0.000000 0.000000 0.000000 6.709192 -36.968921 19.553332 -92.604545 -25.580211 1.449232 108.750381 18.663103 4.247190 7.425220 5.022420 7.352844 0.000000 0.000000 0.000000 6.709192 -36.968921 19.553332 -0.000000 -0.000001 -0.000001 36.570247 5.218711 -28.199379 10.113552 4.487080 -5.651612 0.000000 0.000000 0.000000 17.344354 -0.255004 0.868256 -12.219179 18.249678 -13.297139 0.000000 0.000000 0.000000 17.344354 -0.255004 0.868256 3.460655 -8.918317 -0.904751 -83.626814 1.219635 -12.071366 20.421682 -61.813110 16.243547 0.000000 0.000000 0.000000 17.344354 -0.255004 0.868256 7.814335 26.927345 -8.074469 -63.242709 -8.464374 33.803617 -75.905456 19.956802 56.360228 0.000000 0.000000 0.000000 
-1.103600 107.061821 248.330826 0.000000 0.000000 0.000000 8.210655 -36.709388 19.920534 -90.282943 -20.201792 20.110070 101.314197 14.423466 6.556814 -10.779347 0.992118 3.163267 0.000000 0.000000 0.000000 8.210655 -36.709388 19.920534 -92.839217 -25.143060 1.754399 100.684754 20.592122 7.030879 3.052948 4.285738 8.675364 0.000000 0.000000 0.000000 8.210655 -36.709388 19.920534 0.000000 -0.000002 0.000001 36.280288 5.538049 -27.586407 10.417181 4.343068 -5.637414 0.000000 0.000000 0.000000 17.590071 -0.300817 0.846439 -11.986763 17.712583 -13.403270 0.000000 0.000000 0.000000 17.590071 -0.300817 0.846439 3.732751 -8.938840 -0.897981 -82.664051 -0.098876 -10.383353 13.290199 -62.155104 9.886089 0.000000 0.000000 0.000000 17.590071 -0.300817 0.846439 7.302793 26.569082 -6.881549 -60.118205 -8.940504 34.394121 -76.312734 20.173471 58.156609 0.000000 0.000000 0.000000 
-0.903250 106.618942 252.384537 0.000000 0.000000 0.000000 9.616056 -36.320579 20.241025 -89.055415 -19.259943 19.992556 98.122771 14.205568 6.984016 -10.685524 1.316397 1.477397 0.000000 0.000000 0.000000 9.616056 -36.320579 20.241025 -91.346848 -23.025633 1.420060 90.215966 22.018494 11.279920 0.649909 3.333998 10.213897 0.000000 0.000000 0.000000 9.616056 -36.320579 20.241025 0.000000 0.000000 0.000000 35.793675 5.855735 -26.941287 10.724714 4.198466 -5.583331 0.000000 0.000000 0.000000 17.800935 -0.342643 0.829324 -11.305832 16.957792 -13.348739 0.000000 0.000000 0.000000 17.800935 -0.342643 0.829324 4.015677 -8.916285 -0.887797 -82.276766 -1.094244 -8.977281 7.075138 -62.243657 4.213916 0.000000 0.000000 0.000000 17.800935 -0.342643 0.829324 6.746317 26.067559 -5.641311 -56.516475 -9.132690 35.083922 -76.680628 20.592532 59.887030 0.000000 0.000000 0.000000 
-0.751539 106.026031 256.567688 0.000000 0.000000 0.000000 10.894722 -35.807396 20.532413 -87.592948 -18.001438 19.753184 94.502641 14.574123 7.648003 -11.159087 1.568265 0.072984 0.000000 0.000000 0.000000 10.894722 -35.807396 20.532413 -88.511834 -18.962448 1.732450 78.887681 20.829673 16.066727 1.202916 2.272512 11.800973 0.000000 0.000000 0.000000 10.894722 -35.807396 20.532413 0.000001 0.000001 -0.000000 35.123292 6.138965 -26.282529 11.018728 4.045009 -5.488547 0.000000 0.000000 0.000000 17.963794 -0.390536 0.823574 -10.228568 16.066924 -13.225074 0.000000 0.000000 0.000000 17.963794 -0.390536 0.823574 4.292283 -8.864050 -0.877260 -82.115307 -1.901181 -7.653561 1.786959 -62.124443 -0.712208 0.000000 0.000000 0.000000 17.963794 -0.390536 0.823574 6.167933 25.450303 -4.367978 -52.538286 -9.038834 35.874394 -76.979135 21.195493 61.458971 0.000000 0.000000 0.000000 
-0.636854 105.281723 260.850250 0.000000 0.000000 0.000000 12.035376 -35.212255 20.777937 -86.205286 -16.609726 19.575131 91.037071 14.629543 8.126621 -11.900265 1.693249 -0.708774 0.000000 0.000000 0.000000 12.035376 -35.212255 20.777937 -84.934898 -13.233856 2.338114 68.030487 16.817232 19.997749 2.796105 2.449836 13.868144 0.000000 0.000000 0.000000 12.035376 -35.212255 20.777937 0.000000 0.000000 0.000000 34.283209 6.414577 -25.614919 11.281674 3.874416 -5.352227 0.000000 0.000000 0.000000 18.065659 -0.454592 0.835907 -8.804496 15.105839 -13.118130 0.000000 0.000000 0.000000 18.065659 -0.454592 0.835907 4.491558 -8.733905 -0.871717 -81.674774 -2.197575 -6.386339 -2.687198 -62.302499 -4.885863 0.000000 0.000000 0.000000 18.065659 -0.454592 0.835907 5.587785 24.745909 -3.074827 -48.292815 -8.678169 36.751479 -77.194456 21.926480 62.804020 0.000000 0.000000 0.000000 
